<svg width="20" height="20" viewBox="0 0 20 20" fill="none" xmlns="http://www.w3.org/2000/svg">
<path d="M3.8125 3.81227C4.04691 3.57793 4.3648 3.44629 4.69625 3.44629C5.02771 3.44629 5.34559 3.57793 5.58 3.81227L10 8.23227L14.42 3.81227C14.6558 3.58457 14.9715 3.45858 15.2993 3.46143C15.627 3.46428 15.9405 3.59574 16.1723 3.8275C16.404 4.05926 16.5355 4.37277 16.5383 4.70052C16.5412 5.02827 16.4152 5.34402 16.1875 5.57977L11.7675 9.99977L16.1875 14.4198C16.4152 14.6555 16.5412 14.9713 16.5383 15.299C16.5355 15.6268 16.404 15.9403 16.1723 16.172C15.9405 16.4038 15.627 16.5353 15.2993 16.5381C14.9715 16.541 14.6558 16.415 14.42 16.1873L10 11.7673L5.58 16.1873C5.34425 16.415 5.0285 16.541 4.70075 16.5381C4.373 16.5353 4.05949 16.4038 3.82773 16.172C3.59597 15.9403 3.46451 15.6268 3.46166 15.299C3.45881 14.9713 3.5848 14.6555 3.8125 14.4198L8.2325 9.99977L3.8125 5.57977C3.57816 5.34536 3.44652 5.02748 3.44652 4.69602C3.44652 4.36457 3.57816 4.04668 3.8125 3.81227Z" fill="currentColor"/>
</svg>
