<svg width="20" height="21" viewBox="0 0 20 21" fill="none" xmlns="http://www.w3.org/2000/svg">
<path d="M14.3334 17.9569C14.2314 17.9567 14.1311 17.9299 14.0417 17.879L10 15.6723L5.95837 17.879C5.85567 17.9362 5.73959 17.9625 5.62326 17.9549C5.50692 17.9472 5.39497 17.9059 5.30003 17.8357C5.20525 17.7635 5.13167 17.6654 5.08752 17.5523C5.04337 17.4392 5.03039 17.3156 5.05003 17.1953L5.83337 12.5223L2.55003 9.21649C2.46774 9.1309 2.4101 9.02325 2.3836 8.90547C2.35709 8.78778 2.36278 8.66463 2.40003 8.5501C2.43492 8.43513 2.50036 8.33271 2.58881 8.25463C2.67726 8.17656 2.78513 8.12599 2.90003 8.10876L7.4167 7.4251L9.44171 3.17606C9.49929 3.07566 9.58112 2.99251 9.67896 2.93478C9.77687 2.87704 9.88746 2.84668 10 2.84668C10.1126 2.84668 10.2232 2.87704 10.3211 2.93478C10.419 2.99251 10.5007 3.07566 10.5584 3.17606L12.5834 7.4251L17.1 8.10876C17.215 8.12599 17.3228 8.17656 17.4113 8.25463C17.4997 8.33271 17.5651 8.43513 17.6 8.5501C17.6373 8.66463 17.643 8.78778 17.6165 8.90547C17.59 9.02325 17.5323 9.1309 17.45 9.21649L14.1667 12.5223L14.9417 17.1953C14.9614 17.3156 14.9484 17.4392 14.9042 17.5523C14.86 17.6654 14.7865 17.7635 14.6917 17.8357C14.5862 17.9114 14.4616 17.9536 14.3334 17.9569ZM10 14.2963C10.1009 14.2975 10.2003 14.3211 10.2917 14.3655L13.5 16.0963L12.8917 12.3838C12.8752 12.2796 12.8825 12.1729 12.9128 12.0723C12.9432 11.9715 12.9959 11.8796 13.0667 11.804L15.6667 9.20784L12.075 8.65399C11.9757 8.63754 11.8815 8.5968 11.8005 8.5351C11.7193 8.47339 11.6535 8.39251 11.6084 8.29914L10 4.92414L8.39171 8.30779C8.34662 8.40117 8.28079 8.48205 8.19964 8.54375C8.11849 8.60545 8.02436 8.64619 7.92503 8.66264L4.33337 9.20784L6.93337 11.804C7.00415 11.8796 7.05685 11.9715 7.08724 12.0723C7.11763 12.1729 7.12487 12.2796 7.10837 12.3838L6.50003 16.1223L9.70837 14.3915C9.79779 14.338 9.89729 14.3056 10 14.2963Z" fill="#E2E8FA"/>
</svg>
