<svg width="21" height="21" viewBox="0 0 21 21" fill="none" xmlns="http://www.w3.org/2000/svg">
<path fill-rule="evenodd" clip-rule="evenodd" d="M10.5 4.85484C9.38484 4.85484 8.4808 5.76472 8.4808 6.8871C8.4808 8.00949 9.38484 8.91938 10.5 8.91938C11.6152 8.91938 12.5193 8.00949 12.5193 6.8871C12.5193 5.76472 11.6152 4.85484 10.5 4.85484ZM7.13464 6.8871C7.13464 5.01646 8.64138 3.5 10.5 3.5C12.3587 3.5 13.8655 5.01646 13.8655 6.8871C13.8655 8.75777 12.3587 10.2742 10.5 10.2742C8.64138 10.2742 7.13464 8.75777 7.13464 6.8871Z" fill="#030D45"/>
<path fill-rule="evenodd" clip-rule="evenodd" d="M9.17217 12.9838C7.79901 12.9838 6.68588 14.1041 6.68588 15.4861C6.68588 15.513 6.68814 15.5347 6.69116 15.551C6.69156 15.5532 6.69196 15.5552 6.69237 15.557C7.05184 15.7573 8.0691 16.145 10.5 16.145C12.9308 16.145 13.9481 15.7573 14.3076 15.557C14.308 15.5552 14.3084 15.5532 14.3088 15.551C14.3118 15.5347 14.3141 15.513 14.3141 15.4861C14.3141 14.1041 13.2009 12.9838 11.8278 12.9838H9.17217ZM5.33972 15.4861C5.33972 13.3558 7.05556 11.6289 9.17217 11.6289H11.8278C13.9444 11.6289 15.6602 13.3558 15.6602 15.4861C15.6602 15.8662 15.5323 16.4047 15.0237 16.7056C14.4059 17.0711 13.1307 17.4999 10.5 17.4999C7.86928 17.4999 6.59411 17.0711 5.97621 16.7056C5.4677 16.4047 5.33972 15.8662 5.33972 15.4861Z" fill="#030D45"/>
<path fill-rule="evenodd" clip-rule="evenodd" d="M14.5618 4.90367C14.6588 4.54251 15.0283 4.32885 15.3872 4.42647C16.6155 4.76057 17.4551 5.97461 17.4551 7.33848C17.4551 8.77994 16.4723 10.0993 15.0674 10.2691C14.6984 10.3137 14.3632 10.0488 14.319 9.67734C14.2746 9.3059 14.5379 8.96859 14.907 8.92396C15.5214 8.84968 16.109 8.21613 16.109 7.33848C16.109 6.50533 15.6025 5.88849 15.0359 5.73437C14.6771 5.63677 14.4648 5.26485 14.5618 4.90367Z" fill="#030D45"/>
<path fill-rule="evenodd" clip-rule="evenodd" d="M16.1215 12.1767C16.1926 11.8096 16.5461 11.5699 16.9109 11.6416C18.2695 11.9082 19.25 13.1061 19.25 14.4992V14.8654C19.25 15.2131 19.1464 15.7385 18.664 16.0488C18.3625 16.2428 17.9056 16.4426 17.2147 16.5833C16.8503 16.6575 16.4953 16.4204 16.4215 16.0537C16.3478 15.687 16.5834 15.3295 16.9477 15.2554C17.4601 15.151 17.7497 15.0199 17.8988 14.932L17.899 14.9308C17.9018 14.9144 17.9038 14.8926 17.9038 14.8654V14.4992C17.9038 13.7543 17.3796 13.1139 16.6532 12.9713C16.2884 12.8997 16.0503 12.544 16.1215 12.1767Z" fill="#030D45"/>
<path fill-rule="evenodd" clip-rule="evenodd" d="M6.43821 9.77371C6.34123 10.1348 5.9717 10.3485 5.61284 10.2509C4.38455 9.91678 3.54486 8.70274 3.54486 7.33887C3.54486 5.89742 4.52777 4.57805 5.93253 4.40822C6.30162 4.3636 6.63675 4.62856 6.68109 5.00001C6.72542 5.37148 6.46216 5.70877 6.09309 5.75339C5.47863 5.82767 4.89101 6.46123 4.89101 7.33887C4.89101 8.17203 5.39749 8.7889 5.96406 8.94299C6.32292 9.04055 6.53521 9.41251 6.43821 9.77371Z" fill="#030D45"/>
<path fill-rule="evenodd" clip-rule="evenodd" d="M4.87858 12.1767C4.80742 11.8096 4.45397 11.5699 4.08911 11.6416C2.73053 11.9082 1.75 13.1061 1.75 14.4992V14.8654C1.75 15.2131 1.85358 15.7385 2.33597 16.0488C2.6375 16.2428 3.09446 16.4426 3.78533 16.5833C4.14968 16.6575 4.5048 16.4204 4.57852 16.0537C4.65223 15.687 4.41662 15.3295 4.05227 15.2554C3.53986 15.151 3.25038 15.0199 3.1012 14.932L3.101 14.9308C3.09822 14.9144 3.09615 14.8926 3.09615 14.8654V14.4992C3.09615 13.7543 3.6204 13.1139 4.34679 12.9713C4.71165 12.8997 4.94973 12.544 4.87858 12.1767Z" fill="#030D45"/>
</svg>
