<svg width="21" height="21" viewBox="0 0 21 21" fill="none" xmlns="http://www.w3.org/2000/svg">
<path d="M2.06856 11.3382C1.73655 9.0307 1.57054 7.877 2.04345 6.89058C2.51635 5.90415 3.52291 5.30455 5.53604 4.10533L6.74778 3.38351C8.57591 2.2945 9.48998 1.75 10.5 1.75C11.51 1.75 12.4241 2.2945 14.2522 3.38351L15.464 4.10533C17.4771 5.30455 18.4837 5.90415 18.9565 6.89058C19.4295 7.877 19.2635 9.0307 18.9314 11.3382L18.6875 13.0333C18.261 15.9974 18.0477 17.4793 17.0196 18.3647C15.9914 19.25 14.4835 19.25 11.4678 19.25H9.53216C6.51645 19.25 5.00858 19.25 3.9804 18.3647C2.95221 17.4793 2.73897 15.9974 2.31248 13.0333L2.06856 11.3382Z" stroke="#1C274C"/>
<path d="M13.125 15.75H7.875" stroke="#1C274C" stroke-linecap="round"/>
</svg>
