<svg width="21" height="21" viewBox="0 0 21 21" fill="none" xmlns="http://www.w3.org/2000/svg">
<path fill-rule="evenodd" clip-rule="evenodd" d="M7.21875 15.75C7.21875 15.3876 7.51257 15.0938 7.875 15.0938H13.125C13.4874 15.0938 13.7812 15.3876 13.7812 15.75C13.7812 16.1124 13.4874 16.4062 13.125 16.4062H7.875C7.51257 16.4062 7.21875 16.1124 7.21875 15.75Z" fill="#1C274C"/>
<path fill-rule="evenodd" clip-rule="evenodd" d="M7.61193 1.09376H13.3878C13.5803 1.0937 13.7277 1.09366 13.8567 1.10749C15.0415 1.23466 15.9484 2.20768 16.0035 3.38636C17.0454 3.69749 17.7878 4.66156 17.8013 5.76728C18.3271 5.92507 18.7807 6.17395 19.152 6.57503C19.7225 7.19125 19.8993 7.95068 19.9061 8.83776C19.9125 9.69062 19.7606 10.7684 19.5718 12.1068L19.1877 14.8312C19.0402 15.8777 18.9203 16.7279 18.7338 17.3941C18.5387 18.0911 18.2512 18.6646 17.7187 19.1055C17.1905 19.5429 16.5638 19.7314 15.8231 19.8203C15.1069 19.9062 14.2059 19.9062 13.084 19.9062H7.91601C6.79418 19.9062 5.89313 19.9062 5.17691 19.8203C4.43619 19.7314 3.8095 19.5429 3.28127 19.1055C2.74883 18.6646 2.46125 18.0911 2.26615 17.3941C2.07966 16.7279 1.95981 15.8777 1.81228 14.8312L1.42816 12.1068C1.23944 10.7684 1.08747 9.69062 1.09395 8.83776C1.10068 7.95068 1.27747 7.19125 1.84796 6.57503C2.21918 6.17405 2.67264 5.92518 3.19837 5.76739C3.21176 4.66156 3.95427 3.69739 4.99629 3.38631C5.05133 2.20766 5.95825 1.23466 7.14314 1.10749C7.27207 1.09366 7.41956 1.0937 7.61193 1.09376ZM4.54039 5.53687C5.35046 5.46874 6.34351 5.46875 7.53895 5.46876H13.461C14.6562 5.46875 15.6492 5.46874 16.4592 5.53683C16.3392 5.00515 15.8643 4.59376 15.279 4.59376H5.72063C5.13534 4.59376 4.66041 5.00516 4.54039 5.53687ZM13.7166 2.4125C14.198 2.46417 14.5785 2.82304 14.6717 3.28126H6.32809C6.42129 2.82304 6.80176 2.46417 7.28319 2.4125C7.33244 2.40722 7.40261 2.40626 7.64836 2.40626H13.3514C13.5971 2.40626 13.6673 2.40722 13.7166 2.4125ZM2.81108 7.46669C3.07612 7.1804 3.47468 6.99052 4.2491 6.88752C5.0376 6.78264 6.09312 6.78126 7.58834 6.78126H13.4116C14.9068 6.78126 15.9624 6.78264 16.7509 6.88752C17.5253 6.99052 17.9238 7.1804 18.1889 7.46669C18.4478 7.74631 18.5881 8.12684 18.5936 8.84773C18.5993 9.59157 18.4627 10.5724 18.2646 11.9773L17.8945 14.6023C17.739 15.7055 17.63 16.4684 17.4699 17.0404C17.3157 17.5912 17.1342 17.8854 16.8817 18.0946C16.6249 18.3072 16.2801 18.4436 15.6667 18.5172C15.0378 18.5927 14.2157 18.5937 13.0415 18.5937H7.95844C6.78428 18.5937 5.96219 18.5927 5.33329 18.5172C4.7199 18.4436 4.37512 18.3072 4.11831 18.0946C3.8657 17.8854 3.68426 17.5912 3.53007 17.0404C3.36997 16.4684 3.26104 15.7055 3.10549 14.6023L2.73539 11.9773C2.53733 10.5724 2.40076 9.59157 2.40641 8.84773C2.41188 8.12684 2.55221 7.74631 2.81108 7.46669Z" fill="#1C274C"/>
</svg>
