<svg width="20" height="21" viewBox="0 0 20 21" fill="none" xmlns="http://www.w3.org/2000/svg">
<path d="M9.99996 4.7604L9.54963 5.21049C9.66746 5.33761 9.83004 5.40944 9.99996 5.40944C10.1699 5.40944 10.3325 5.33761 10.4503 5.21049L9.99996 4.7604ZM7.855 15.8557C6.59195 14.8218 5.21085 13.812 4.1152 12.5308C3.04098 11.2746 2.29163 9.80894 2.29163 7.90735H1.04163C1.04163 10.214 1.96704 11.9738 3.18056 13.3928C4.37265 14.7867 5.89227 15.9019 7.08114 16.8752L7.855 15.8557ZM2.29163 7.90735C2.29163 6.04602 3.30443 4.48512 4.68693 3.82887C6.03002 3.19133 7.83468 3.36017 9.54963 5.21049L10.4503 4.31032C8.41537 2.11483 6.05337 1.75298 4.16726 2.64828C2.32055 3.52488 1.04163 5.56036 1.04163 7.90735H2.29163ZM7.08114 16.8752C7.508 17.2246 7.96624 17.5972 8.43062 17.879C8.89488 18.1607 9.42462 18.3897 9.99996 18.3897V17.0916C9.74196 17.0916 9.43837 16.9871 9.06129 16.7582C8.68437 16.5295 8.29336 16.2146 7.855 15.8557L7.08114 16.8752ZM12.9188 16.8752C14.1076 15.9019 15.6273 14.7867 16.8194 13.3928C18.0329 11.9738 18.9583 10.214 18.9583 7.90735H17.7083C17.7083 9.80894 16.959 11.2746 15.8847 12.5308C14.789 13.812 13.408 14.8218 12.145 15.8557L12.9188 16.8752ZM18.9583 7.90735C18.9583 5.56036 17.6794 3.52488 15.8326 2.64828C13.9465 1.75298 11.5845 2.11483 9.54963 4.31032L10.4503 5.21049C12.1652 3.36017 13.9699 3.19133 15.313 3.82887C16.6955 4.48512 17.7083 6.04602 17.7083 7.90735H18.9583ZM12.145 15.8557C11.7065 16.2146 11.3155 16.5295 10.9386 16.7582C10.5615 16.9871 10.258 17.0916 9.99996 17.0916V18.3897C10.5753 18.3897 11.105 18.1607 11.5693 17.879C12.0337 17.5972 12.4919 17.2246 12.9188 16.8752L12.145 15.8557Z" fill="#E2E8FA"/>
</svg>
