<svg width="57" height="67" viewBox="0 0 57 67" fill="none" xmlns="http://www.w3.org/2000/svg">
<path d="M27.9373 66.8394L27.7473 66.6855L26.3204 62.252L25.6086 60.4047L24.1033 56.7101L21.3822 51.2914L20.0559 49.0746L17.7469 45.6264L15.7536 43.0426L12.8059 40.0845L10.7248 38.4567L9.00759 37.3427L7.61875 36.5894L5.57317 35.7554L3.70743 35.1766L6.79972 33.0941L8.27159 31.9207L9.76358 30.3555L10.6776 28.9703L11.3945 27.2015L11.6787 25.563L11.6103 24.2621L11.542 22.9613L10.8935 20.257L10.0634 17.7382L9.53802 16.4114L9.01269 15.0845L7.24477 11.4675L6.08917 9.41952L5.34744 8.18799L3.49443 5.23232L0.219849 0.3447L0.313704 0.250466L2.9974 2.27879L4.71457 3.61407L8.39422 6.70244L11.9512 9.89132L14.527 12.2509L18.5821 16.3162L20.0626 17.9172L22.6332 20.996L23.8566 22.7201L24.3126 23.4184L24.7687 24.1166V24.2953L23.4808 23.0798L21.4915 21.5655L18.3893 19.459L16.7346 18.625L14.8508 17.87L14.4128 17.7875L13.9749 17.705V17.8485L14.6076 19.2718L15.3315 21.2423L15.5118 22.2744L15.692 23.3066L15.6911 25.3062L15.3241 27.5781L14.6108 29.3811L13.3762 31.5353L12.3373 32.8185L11.0017 34.2103L11.1395 34.4341L13.3003 35.7509L15.2628 37.2798L17.116 38.9762L19.5176 41.6094L20.8513 43.2865L22.6612 45.8727L24.3548 48.5821L25.8005 51.1683L26.7377 52.8925L27.1444 53.6929H29.1576L30.812 50.6757L33.0251 46.9811L34.2412 45.1338L35.7357 43.0402L37.9709 40.3309L40.4071 37.8481L42.4923 36.1894L45.3133 34.2993L45.3787 34.2717L43.8173 32.649L42.2871 30.4057L41.307 28.3059L40.9947 27.0523L40.6824 25.7988L40.6729 22.9663L40.9963 21.7348L41.3198 20.5032L42.4308 17.8143L42.3176 17.7007L41.143 17.9899L39.4001 18.7098L37.586 19.7313L36.2368 20.6118L33.0478 22.9312L31.6372 24.3133V24.0914L33.4718 21.3487L36.7124 17.4246L42.8603 11.2902L45.6628 8.80387L49.1157 5.7543L53.0741 2.52308L54.5126 1.40282L56.1684 0.223145V0.341035L51.9296 6.71034L50.6617 8.80394L49.1303 11.5133L48.1745 13.3606L47.0545 15.8236L46.3454 17.6709L45.9391 18.9025L45.5328 20.134L45.3311 20.8222L45.1295 21.5105L44.9462 22.7311L44.763 23.9517L44.7622 24.8653L44.7615 25.7788L45.0419 27.4L45.8648 29.2153L46.4041 29.9702L46.9435 30.7252L48.993 32.7193L52.6321 35.1174L52.57 35.1798L52.5079 35.2421L49.6063 36.2147L47.4332 37.3274L45.8754 38.2776L43.9642 39.7116L41.4188 42.1785L39.4061 44.6415L37.5813 47.1046L36.1945 49.3213L34.4497 52.4002L32.0376 57.3263L31.4744 58.6809L30.9113 60.0356L30.0701 62.2524L29.0924 65.208L28.5639 66.9937H28.1272L27.9372 66.8398L27.9373 66.8394ZM21.9165 38.9038L21.456 38.7948L20.2651 38.1889L18.2649 36.2995L16.7851 34.3277L16.8424 34.2701L16.8998 34.2126L18.3294 34.5239L20.3769 35.5962L21.8016 36.5676L22.5591 37.4902L22.7619 38.1099L22.9647 38.7296L23.0213 38.8835L23.0779 39.0375L22.377 39.0127L21.9165 38.9038ZM33.5388 38.6372L33.62 38.237L33.7328 37.7917L33.8457 37.3465L35.0104 36.2528L36.5833 35.3273L38.1994 34.5801L39.5275 34.1107L39.5691 34.1525L39.6107 34.1943L37.6565 36.7877L36.3064 38.0266L35.1647 38.6673L33.9233 39.0375H33.4577L33.5388 38.6372Z" fill="url(#paint0_linear_153_58)"/>
<defs>
<linearGradient id="paint0_linear_153_58" x1="28.1941" y1="0.223145" x2="28.1941" y2="66.9937" gradientUnits="userSpaceOnUse">
<stop stop-color="#FF5C00"/>
<stop offset="1" stop-color="#FFE600"/>
</linearGradient>
</defs>
</svg>
