<svg width="24" height="27" viewBox="0 0 24 27" fill="none" xmlns="http://www.w3.org/2000/svg">
<path d="M11.7749 26.7359L11.6989 26.6743L11.1282 24.9009L10.8435 24.162L10.2413 22.6841L9.1529 20.5167L8.62237 19.63L7.69877 18.2506L6.90145 17.2171L5.72237 16.0339L4.88991 15.3828L4.20304 14.9372L3.6475 14.6359L2.82927 14.3022L2.08298 14.0707L3.31989 13.2377L3.90864 12.7684L4.50543 12.1423L4.87103 11.5882L5.1578 10.8807L5.27148 10.2253L5.24414 9.70495L5.2168 9.18462L4.95741 8.1029L4.62534 7.09539L4.41521 6.56465L4.20508 6.03391L3.49791 4.58712L3.03567 3.7679L2.73898 3.27529L1.99778 2.09303L0.687943 0.137978L0.725485 0.100284L1.79896 0.911614L2.48583 1.44573L3.95769 2.68107L5.38049 3.95663L6.41079 4.90047L8.03285 6.52658L8.62506 7.16697L9.65327 8.3985L10.1426 9.08815L10.3251 9.36744L10.5075 9.64673V9.71821L9.99234 9.232L9.19661 8.62631L7.95571 7.7837L7.29386 7.45009L6.54033 7.1481L6.36514 7.1151L6.18995 7.0821V7.13952L6.44304 7.70883L6.73261 8.497L6.80471 8.90986L6.87682 9.32272L6.87645 10.1226L6.72965 11.0313L6.44432 11.7525L5.95049 12.6142L5.53491 13.1275L5.00067 13.6842L5.05578 13.7738L5.92013 14.3005L6.70513 14.912L7.44639 15.5906L8.40703 16.6438L8.94053 17.3147L9.6645 18.3492L10.3419 19.4329L10.9202 20.4674L11.2951 21.1571L11.4578 21.4773H12.2631L12.9248 20.2704L13.81 18.7925L14.2965 18.0536L14.8943 17.2162L15.7884 16.1324L16.7629 15.1393L17.5969 14.4759L18.7253 13.7198L18.7515 13.7088L18.1269 13.0597L17.5148 12.1624L17.1228 11.3225L16.9979 10.821L16.873 10.3196L16.8692 9.18661L16.9985 8.694L17.1279 8.20139L17.5723 7.12583L17.5271 7.08037L17.0572 7.19604L16.36 7.48402L15.6344 7.89261L15.0947 8.24481L13.8191 9.17258L13.2549 9.72543V9.63667L13.9887 8.53957L15.285 6.96992L17.7441 4.51617L18.8651 3.52165L20.2463 2.30182L21.8297 1.00933L22.405 0.561227L23.0674 0.0893555V0.136512L21.3719 2.68423L20.8647 3.52167L20.2521 4.60542L19.8698 5.34433L19.4218 6.32955L19.1382 7.06847L18.9756 7.56108L18.8131 8.05369L18.7325 8.32899L18.6518 8.6043L18.5785 9.09254L18.5052 9.58079L18.5049 9.94621L18.5046 10.3116L18.6167 10.9601L18.9459 11.6862L19.1617 11.9882L19.3774 12.2902L20.1972 13.0878L21.6528 14.0471L21.628 14.072L21.6031 14.0969L20.4425 14.486L19.5733 14.9311L18.9502 15.3111L18.1857 15.8847L17.1675 16.8715L16.3625 17.8567L15.6325 18.8419L15.0778 19.7286L14.3799 20.9602L13.415 22.9306L13.1898 23.4725L12.9645 24.0143L12.628 24.901L12.237 26.0833L12.0256 26.7976H11.8509L11.7749 26.736L11.7749 26.7359ZM9.3666 15.5616L9.18242 15.518L8.70604 15.2756L7.90596 14.5199L7.31404 13.7312L7.33698 13.7082L7.35992 13.6851L7.93175 13.8097L8.75078 14.2386L9.32065 14.6271L9.62364 14.9962L9.70476 15.2441L9.78589 15.4919L9.80852 15.5535L9.83116 15.6151L9.55082 15.6052L9.3666 15.5616ZM14.0155 15.455L14.048 15.2949L14.0931 15.1168L14.1383 14.9387L14.6041 14.5012L15.2333 14.131L15.8798 13.8321L16.411 13.6444L16.4277 13.6611L16.4443 13.6778L15.6626 14.7152L15.1226 15.2107L14.6659 15.467L14.1693 15.6151H13.9831L14.0155 15.455Z" fill="url(#paint0_linear_171_282)"/>
<defs>
<linearGradient id="paint0_linear_171_282" x1="11.8777" y1="0.0893555" x2="11.8777" y2="26.7976" gradientUnits="userSpaceOnUse">
<stop stop-color="#FF5C00"/>
<stop offset="1" stop-color="#FFE600"/>
</linearGradient>
</defs>
</svg>
