<svg width="30" height="30" viewBox="0 0 30 30" fill="none" xmlns="http://www.w3.org/2000/svg">
<path d="M6.60001 9.90039C6.10296 9.90039 5.70001 10.3033 5.70001 10.8004C5.70001 11.2974 6.10296 11.7004 6.60001 11.7004V9.90039ZM23.4 11.7004C23.8971 11.7004 24.3 11.2974 24.3 10.8004C24.3 10.3033 23.8971 9.90039 23.4 9.90039V11.7004ZM6.60001 14.7004C6.10296 14.7004 5.70001 15.1034 5.70001 15.6004C5.70001 16.0974 6.10296 16.5004 6.60001 16.5004V14.7004ZM21 16.5004C21.4971 16.5004 21.9 16.0974 21.9 15.6004C21.9 15.1034 21.4971 14.7004 21 14.7004V16.5004ZM6.60001 19.5004C6.10296 19.5004 5.70001 19.9033 5.70001 20.4004C5.70001 20.8974 6.10296 21.3004 6.60001 21.3004V19.5004ZM15 21.3004C15.4971 21.3004 15.9 20.8974 15.9 20.4004C15.9 19.9033 15.4971 19.5004 15 19.5004V21.3004ZM6.60001 11.7004H23.4V9.90039H6.60001V11.7004ZM6.60001 16.5004H21V14.7004H6.60001V16.5004ZM6.60001 21.3004H15V19.5004H6.60001V21.3004Z" fill="currentColor"/>
</svg>
