<svg width="24" height="24" viewBox="0 0 24 24" fill="none" xmlns="http://www.w3.org/2000/svg">
<path d="M18.9324 10.0845C18.5117 10.0845 18.1696 10.4276 18.1696 10.8499V11.5955H19.6969V10.8499C19.6969 10.4276 19.3532 10.0845 18.9324 10.0845Z" fill="#1C274C"/>
<path d="M21.0521 6.45215H2.94791C1.32766 6.45215 0 7.78083 0 9.40108V14.5994C0 16.2222 1.32766 17.5483 2.94791 17.5483H21.0521C22.6723 17.5483 24 16.2222 24 14.5994V9.40108C24 7.78083 22.6723 6.45215 21.0521 6.45215ZM6.41362 12.8055L7.12085 13.5756L5.89583 14.4947L5.39336 13.5756C5.31932 13.4443 5.2034 13.187 5.04051 12.8055C4.8623 13.2247 4.74383 13.4801 4.68511 13.5756L4.17549 14.4947L2.91626 13.5756L3.67762 12.8055C3.89209 12.5936 4.09991 12.4118 4.30519 12.2627C4.09583 12.2438 3.8206 12.205 3.48102 12.1412L2.42655 11.9696L2.91574 10.5337L3.86145 10.9636C3.96102 11.0086 4.20868 11.15 4.60289 11.3844C4.51864 11.003 4.46451 10.7196 4.44 10.5337L4.3057 9.50576H5.80749L5.68596 10.5337C5.6594 10.7839 5.60119 11.0673 5.51489 11.3844C5.688 11.2976 5.80238 11.2399 5.85651 11.2082C6.04647 11.1025 6.19302 11.0295 6.29157 10.9825L7.23779 10.5337L7.70655 11.9696L6.66026 12.1881C6.46877 12.2249 6.18485 12.2489 5.80749 12.2627C6.06332 12.4629 6.26349 12.6426 6.41362 12.8055ZM13.3466 12.8055L14.0548 13.5756L12.8298 14.4942L12.3278 13.5756C12.2538 13.4443 12.1379 13.187 11.9755 12.8055C11.7968 13.2247 11.6793 13.4801 11.6206 13.5756L11.11 14.4942L9.85123 13.5756L10.6126 12.8055C10.8271 12.5936 11.0344 12.4118 11.2402 12.2627C11.0318 12.2438 10.7556 12.205 10.416 12.1412L9.36102 11.9696L9.85072 10.5337L10.7969 10.9636C10.8955 11.0086 11.1442 11.15 11.5379 11.3844C11.4516 11.003 11.3974 10.7196 11.3745 10.5337L11.2397 9.50679H12.742L12.6199 10.5337C12.5923 10.7839 12.5351 11.0673 12.4499 11.3844C12.622 11.2976 12.7363 11.2399 12.791 11.2082C12.9799 11.1025 13.127 11.0295 13.226 10.9825L14.1728 10.5337L14.642 11.9696L13.5947 12.1881C13.4032 12.2249 13.1203 12.2489 12.7425 12.2627C12.9963 12.4629 13.1969 12.6426 13.3466 12.8055ZM21.1149 14.1066C21.1149 14.4227 20.856 14.6811 20.5404 14.6811H17.326C17.0099 14.6811 16.7515 14.4227 16.7515 14.1066V12.1693C16.7515 11.8532 17.0099 11.5948 17.326 11.5948H17.4036V10.8493C17.4036 10.0052 18.0894 9.31836 18.9324 9.31836C19.776 9.31836 20.4623 10.0047 20.4623 10.8493V11.5948H20.5399C20.855 11.5948 21.1144 11.8532 21.1144 12.1693V14.1066H21.1149Z" fill="#1C274C"/>
</svg>
