<svg width="24" height="24" viewBox="0 0 24 24" fill="none" xmlns="http://www.w3.org/2000/svg">
<path d="M19.2223 16.556H15.5071C13.7619 16.556 12.1864 15.5896 11.3956 14.0339L9.68343 10.6658C9.13053 9.57823 8.02923 8.90263 6.80917 8.90263H3.09401C2.71073 8.90267 2.4 8.59195 2.4 8.20866C2.4 7.82537 2.71073 7.51465 3.09401 7.51465H6.80921C8.55446 7.51465 10.1299 8.4811 10.9207 10.0369L12.6329 13.4049C13.1858 14.4925 14.2871 15.1681 15.5071 15.1681H19.2223C20.1394 15.1681 20.1403 16.556 19.2223 16.556Z" fill="#E2E8FA"/>
<path d="M16.8441 17.5702V14.1521C16.8441 13.461 17.5939 13.0292 18.1914 13.3743L21.1515 15.0833C21.7501 15.4288 21.749 16.2941 21.1515 16.639L18.1914 18.3481C17.5931 18.6936 16.8441 18.2603 16.8441 17.5702Z" fill="#E2E8FA"/>
<path d="M6.80932 16.5541C6.42604 16.5541 6.11531 16.2434 6.11531 15.8601C6.11531 15.4768 6.42604 15.1661 6.80932 15.1661C8.02938 15.1661 9.13068 14.4905 9.68358 13.4029L11.3957 10.0349C12.1866 8.47911 13.762 7.5127 15.5073 7.5127H19.2225C20.1395 7.5127 20.1405 8.90068 19.2225 8.90068H15.5073C14.2872 8.90068 13.1858 9.57628 12.633 10.6639L10.9209 14.0319C10.13 15.5877 8.55453 16.5541 6.80932 16.5541Z" fill="#E2E8FA"/>
<path d="M4.4061 16.555H3.09398C2.71073 16.555 2.4 16.2443 2.4 15.861C2.4 15.4778 2.71073 15.167 3.09401 15.167H4.40614C4.78942 15.167 5.10015 15.4777 5.10015 15.861C5.10015 16.2443 4.78942 16.555 4.4061 16.555Z" fill="#E2E8FA"/>
<path d="M18.1914 5.72097L21.1515 7.42999C21.75 7.77555 21.7491 8.64079 21.1515 8.98575L18.1914 10.6948C17.5929 11.0403 16.8441 10.6069 16.8441 9.91691V6.49883C16.844 5.80789 17.5937 5.37586 18.1914 5.72097Z" fill="#E2E8FA"/>
</svg>
