<svg width="20" height="21" viewBox="0 0 20 21" fill="none" xmlns="http://www.w3.org/2000/svg">
<path d="M9.64289 2.2251H9.25503C8.28146 2.2251 7.50646 2.2251 6.88218 2.2785C6.24146 2.33265 5.69646 2.44688 5.19646 2.71243C4.38918 3.14166 3.73355 3.82536 3.32361 4.66548C3.06932 5.18545 2.96075 5.75364 2.90789 6.42048C2.85718 7.071 2.85718 7.87804 2.85718 8.89425V15.2637C2.85718 16.0136 2.85718 16.6286 2.89861 17.1033C2.94003 17.5743 3.02932 18.0564 3.31861 18.4384C3.51701 18.6999 3.76944 18.9118 4.05725 19.0584C4.34506 19.205 4.6609 19.2826 4.98146 19.2855C5.45003 19.29 5.87218 19.066 6.25289 18.8108C6.63861 18.5534 7.10432 18.1759 7.67146 17.7152L9.03646 16.6085C9.59075 16.159 9.71003 16.0804 9.81432 16.0507C9.93593 16.0165 10.0641 16.0165 10.1857 16.0507C10.29 16.0804 10.4093 16.159 10.9636 16.6085L12.3279 17.7152C12.8958 18.1759 13.3615 18.5534 13.7465 18.8108C14.1279 19.0667 14.55 19.29 15.0179 19.2855C15.3386 19.2827 15.6547 19.205 15.9426 19.0582C16.2305 18.9115 16.4831 18.6994 16.6815 18.4377C16.9707 18.0564 17.06 17.5743 17.1015 17.1033C17.1429 16.6286 17.1429 16.0136 17.1429 15.2637V13.2461C17.1429 13.0494 17.0676 12.8607 16.9337 12.7216C16.7997 12.5825 16.618 12.5044 16.4286 12.5044C16.2392 12.5044 16.0575 12.5825 15.9235 12.7216C15.7896 12.8607 15.7143 13.0494 15.7143 13.2461V15.2266C15.7143 16.0233 15.7136 16.5692 15.6786 16.9698C15.6429 17.3829 15.5786 17.4942 15.5593 17.5194C15.4934 17.6065 15.4095 17.6771 15.3139 17.726C15.2182 17.7749 15.1131 17.8009 15.0065 17.802C14.9772 17.802 14.855 17.7872 14.5208 17.5639C14.1965 17.3473 13.7822 17.0128 13.1793 16.5232L11.8436 15.4395L11.7543 15.3676C11.3429 15.0323 10.9807 14.7378 10.5615 14.6191C10.1941 14.5153 9.80669 14.5153 9.43932 14.6191C9.01932 14.7378 8.65718 15.0323 8.24575 15.3676L8.15718 15.4395L6.82075 16.5232C6.21789 17.0128 5.80432 17.3466 5.48003 17.5639C5.14503 17.7879 5.02289 17.802 4.99432 17.802C4.88761 17.8011 4.78246 17.7753 4.68664 17.7265C4.59082 17.6777 4.50679 17.6072 4.44075 17.5202C4.42146 17.4942 4.35718 17.3829 4.32146 16.9698C4.28575 16.5692 4.28575 16.0233 4.28575 15.2266V8.92614C4.28575 7.87136 4.28575 7.12367 4.33218 6.53991C4.37718 5.9643 4.46289 5.61271 4.59789 5.33603C4.87143 4.77576 5.30875 4.3198 5.84718 4.0335C6.11146 3.89257 6.44718 3.80356 6.99861 3.75683C7.55861 3.70936 8.27432 3.70861 9.28646 3.70861H9.64289C9.83233 3.70861 10.014 3.63046 10.148 3.49136C10.2819 3.35225 10.3572 3.16358 10.3572 2.96686C10.3572 2.77013 10.2819 2.58146 10.148 2.44235C10.014 2.30325 9.83233 2.2251 9.64289 2.2251ZM19.2857 6.67565C19.2857 5.49529 18.8342 4.36327 18.0305 3.52863C17.2268 2.69399 16.1367 2.2251 15 2.2251C13.8634 2.2251 12.7733 2.69399 11.9696 3.52863C11.1658 4.36327 10.7143 5.49529 10.7143 6.67565C10.7143 7.85601 11.1658 8.98802 11.9696 9.82266C12.7733 10.6573 13.8634 11.1262 15 11.1262C16.1367 11.1262 17.2268 10.6573 18.0305 9.82266C18.8342 8.98802 19.2857 7.85601 19.2857 6.67565ZM14.2907 4.36359C14.3123 4.17585 14.402 4.00373 14.5416 3.88238C14.6812 3.76104 14.8602 3.69963 15.0419 3.71071C15.2236 3.72179 15.3945 3.80452 15.5194 3.94199C15.6444 4.07947 15.7141 4.26131 15.7143 4.45037V5.93389H17.1429L17.2265 5.93908C17.4072 5.96141 17.573 6.05458 17.6898 6.19956C17.8067 6.34454 17.8658 6.53038 17.8552 6.71912C17.8445 6.90785 17.7648 7.08523 17.6324 7.21502C17.5001 7.3448 17.3249 7.4172 17.1429 7.41741H15.7143V8.90092L15.7093 8.98771C15.6878 9.17544 15.5981 9.34757 15.4585 9.46891C15.3189 9.59026 15.1399 9.65166 14.9582 9.64058C14.7764 9.6295 14.6056 9.54677 14.4806 9.4093C14.3557 9.27182 14.286 9.08998 14.2857 8.90092V7.41741H12.8572L12.7736 7.41221C12.5928 7.38988 12.4271 7.29671 12.3102 7.15173C12.1934 7.00675 12.1342 6.82091 12.1449 6.63218C12.1556 6.44344 12.2352 6.26606 12.3676 6.13628C12.5 6.00649 12.6751 5.9341 12.8572 5.93389H14.2857V4.45037L14.2907 4.36359Z" fill="#E2E8FA"/>
</svg>
