<svg width="16" height="16" viewBox="0 0 16 16" fill="none" xmlns="http://www.w3.org/2000/svg">
<path d="M12.6588 11.5469L15.3417 14.2298C15.4891 14.3772 15.5719 14.5771 15.5719 14.7855C15.5719 14.9939 15.4891 15.1938 15.3417 15.3412C15.1943 15.4886 14.9944 15.5714 14.786 15.5714C14.5776 15.5714 14.3777 15.4886 14.2303 15.3412L11.5474 12.6584C10.1759 13.7461 8.44035 14.2682 6.69635 14.1176C4.95235 13.967 3.33199 13.1551 2.16729 11.8483C1.0026 10.5415 0.381769 8.83875 0.432029 7.08898C0.482289 5.33921 1.19983 3.67491 2.43761 2.43712C3.6754 1.19934 5.3397 0.4818 7.08947 0.431541C8.83923 0.381281 10.542 1.00211 11.8488 2.1668C13.1556 3.3315 13.9674 4.95187 14.1181 6.69587C14.2687 8.43987 13.7466 10.1754 12.6588 11.5469ZM7.28598 12.5712C8.3314 12.5712 9.35334 12.2612 10.2226 11.6804C11.0918 11.0996 11.7693 10.2741 12.1693 9.30825C12.5694 8.34241 12.6741 7.27963 12.4701 6.2543C12.2662 5.22898 11.7628 4.28715 11.0235 3.54793C10.2843 2.80871 9.3425 2.3053 8.31718 2.10134C7.29185 1.89739 6.22907 2.00207 5.26323 2.40213C4.29739 2.8022 3.47187 3.47968 2.89107 4.34891C2.31027 5.21814 2.00027 6.24008 2.00027 7.2855C2.00027 8.68735 2.55716 10.0318 3.54842 11.0231C4.53968 12.0143 5.88413 12.5712 7.28598 12.5712Z" fill="#1C274C"/>
</svg>
