<svg width="20" height="21" viewBox="0 0 20 21" fill="none" xmlns="http://www.w3.org/2000/svg">
<path d="M2.72903 13.2365C2.02076 12.281 1.66663 11.8032 1.66663 10.3845C1.66663 8.96579 2.02076 8.48804 2.72903 7.53248C4.14326 5.62451 6.51505 3.46143 9.99996 3.46143C13.4849 3.46143 15.8566 5.62451 17.2709 7.53248C17.9791 8.48804 18.3333 8.96579 18.3333 10.3845C18.3333 11.8032 17.9791 12.281 17.2709 13.2365C15.8566 15.1445 13.4849 17.3076 9.99996 17.3076C6.51505 17.3076 4.14326 15.1445 2.72903 13.2365Z" stroke="#E2E8FA"/>
<path d="M12.5 10.3847C12.5 11.8186 11.3807 12.9809 10 12.9809C8.61925 12.9809 7.5 11.8186 7.5 10.3847C7.5 8.95087 8.61925 7.78857 10 7.78857C11.3807 7.78857 12.5 8.95087 12.5 10.3847Z" stroke="#E2E8FA"/>
</svg>
