<svg width="24" height="24" viewBox="0 0 24 24" fill="none" xmlns="http://www.w3.org/2000/svg">
<g clip-path="url(#clip0_1_1910)">
<path d="M20.6554 13.845C21.4515 14.6222 22.2918 15.3535 23.0058 16.2092C23.3212 16.5894 23.6198 16.9817 23.8483 17.423C24.172 18.0503 23.8788 18.7406 23.3164 18.778L19.82 18.7765C18.9182 18.8513 18.1988 18.4883 17.5939 17.8717C17.1098 17.3786 16.6615 16.8538 16.1961 16.3441C16.0052 16.1358 15.8055 15.9398 15.5669 15.7848C15.0896 15.475 14.6753 15.5698 14.4025 16.0676C14.1247 16.574 14.0617 17.1346 14.0344 17.6989C13.997 18.5222 13.7481 18.7387 12.9211 18.7764C11.1537 18.8597 9.47629 18.5923 7.91802 17.7007C6.54421 16.9147 5.47893 15.805 4.55165 14.5488C2.74635 12.1028 1.36377 9.41485 0.12121 6.65166C-0.158493 6.02911 0.0460693 5.69494 0.732976 5.68308C1.87359 5.66091 3.01405 5.6625 4.15602 5.68148C4.61962 5.68828 4.92651 5.95416 5.10552 6.39211C5.72263 7.9095 6.47774 9.35316 7.42556 10.6913C7.67798 11.0476 7.93537 11.4038 8.30184 11.6546C8.7073 11.9322 9.01602 11.8402 9.20676 11.3885C9.32779 11.1021 9.38081 10.7936 9.40809 10.4869C9.49846 9.43163 9.51037 8.37811 9.35188 7.32652C9.25457 6.67022 8.88492 6.24534 8.23002 6.12117C7.89585 6.05784 7.94559 5.93349 8.1074 5.74275C8.38841 5.41378 8.65274 5.20898 9.17966 5.20898H13.1311C13.7532 5.33175 13.8914 5.61122 13.9765 6.23714L13.9799 10.6264C13.9731 10.8687 14.1009 11.5878 14.5374 11.7481C14.8867 11.8623 15.1169 11.5829 15.3266 11.3614C16.2727 10.3573 16.9479 9.17058 17.5511 7.9418C17.8188 7.40147 18.049 6.84038 18.2721 6.2797C18.4374 5.86369 18.6967 5.65898 19.1654 5.66803L22.9684 5.67141C23.0812 5.67141 23.1953 5.67305 23.3045 5.69175C23.9453 5.80097 24.121 6.07664 23.923 6.70242C23.6112 7.68422 23.0044 8.50242 22.4111 9.32438C21.7769 10.2019 21.0985 11.0495 20.4696 11.9322C19.8917 12.7385 19.9376 13.1448 20.6554 13.845Z" fill="#1C274C"/>
</g>
<defs>
<clipPath id="clip0_1_1910">
<rect width="24" height="24" fill="white"/>
</clipPath>
</defs>
</svg>
